<?xml version="1.0" standalone="no"?>
<!DOCTYPE svg PUBLIC "-//W3C//DTD SVG 20010904//EN"
 "http://www.w3.org/TR/2001/REC-SVG-20010904/DTD/svg10.dtd">
<svg version="1.0" xmlns="http://www.w3.org/2000/svg"
 width="512.000000pt" height="512.000000pt" viewBox="0 0 512.000000 512.000000"
 preserveAspectRatio="xMidYMid meet">

<g transform="translate(0.000000,512.000000) scale(0.100000,-0.100000)"
fill="#111325" stroke="none">
<path d="M0 2560 l0 -2560 2560 0 2560 0 0 2560 0 2560 -2560 0 -2560 0 0
-2560z m2668 2075 c34 -8 90 -29 125 -46 63 -32 197 -133 197 -149 0 -5 -9
-12 -21 -15 -11 -4 -36 -20 -55 -37 l-34 -30 -67 51 c-117 88 -222 115 -334
87 -170 -44 -330 -208 -463 -474 -33 -65 -43 -94 -34 -97 7 -2 51 -16 97 -31
103 -32 230 -80 373 -141 l106 -45 148 62 c118 49 278 106 432 156 9 3 6 17
-12 53 l-25 49 30 12 c17 7 44 26 60 42 l29 30 34 -75 35 -75 68 15 c293 62
604 56 789 -16 321 -125 437 -415 314 -782 -54 -162 -188 -398 -313 -551 -26
-32 -47 -61 -47 -66 0 -5 21 -35 46 -68 78 -99 183 -263 235 -367 172 -341
169 -632 -7 -817 -101 -106 -225 -167 -395 -195 -52 -8 -96 -15 -99 -15 -3 0
-5 32 -5 70 0 63 2 71 20 75 191 34 291 74 363 144 170 167 141 458 -84 822
-41 66 -125 183 -169 237 -2 2 -60 -53 -130 -122 -69 -69 -181 -172 -248 -228
-67 -56 -123 -104 -124 -107 -2 -3 -14 -73 -28 -155 -26 -156 -67 -329 -109
-461 -14 -44 -24 -80 -22 -82 1 -2 31 -9 67 -16 l64 -13 -4 -70 c-2 -38 -4
-70 -5 -71 0 -1 -41 7 -89 17 l-88 18 -39 -84 c-86 -186 -221 -373 -334 -463
-135 -108 -291 -156 -429 -133 -233 40 -441 235 -603 568 l-54 111 -88 -17
c-230 -48 -519 -52 -676 -11 -290 76 -456 274 -456 542 0 106 47 294 97 393
13 25 17 27 25 13 5 -9 29 -28 53 -43 25 -14 45 -28 45 -31 0 -2 -13 -42 -30
-89 -119 -337 -14 -563 299 -646 110 -29 311 -35 471 -14 169 23 213 34 205
55 -42 109 -105 367 -136 559 -19 120 -22 128 -52 152 -95 74 -254 217 -354
318 l-114 114 -18 -24 c-10 -12 -27 -34 -38 -47 l-20 -24 -39 26 c-21 15 -46
27 -56 27 -32 0 -27 17 22 79 28 33 50 66 50 71 0 6 -21 36 -47 68 -25 31 -78
104 -116 162 -284 430 -324 797 -111 1020 69 72 130 113 228 151 185 72 496
78 788 16 l68 -15 54 112 c206 424 493 629 784 561z"/>
<path d="M1164 3865 c-246 -44 -373 -153 -406 -345 -35 -201 100 -528 339
-824 l22 -28 114 114 c100 101 259 244 354 318 30 24 33 32 52 152 31 192 94
450 136 560 5 13 -4 18 -47 28 -179 39 -428 50 -564 25z"/>
<path d="M3610 3874 c-14 -2 -75 -11 -137 -21 -61 -9 -116 -19 -122 -22 -7 -4
-1 -35 15 -85 42 -133 83 -306 109 -462 14 -82 26 -152 28 -155 1 -3 57 -51
124 -107 67 -56 179 -159 248 -228 70 -69 128 -124 130 -122 250 302 395 647
356 853 -31 171 -137 273 -340 327 -57 15 -115 21 -231 23 -85 2 -166 2 -180
-1z"/>
<path d="M1909 3763 c-22 -54 -67 -220 -92 -333 -37 -171 -39 -182 -24 -173 6
5 79 53 162 107 82 55 214 135 294 180 l144 80 -63 28 c-74 33 -375 138 -396
138 -8 0 -19 -12 -25 -27z"/>
<path d="M3015 3736 c-88 -30 -189 -67 -224 -83 l-64 -29 124 -68 c130 -72
309 -183 419 -260 35 -25 65 -44 67 -43 4 4 -35 191 -61 292 -37 145 -71 240
-87 243 -8 1 -86 -22 -174 -52z"/>
<path d="M2440 3489 c-206 -109 -440 -255 -617 -386 l-71 -52 -9 -88 c-10
-114 -10 -692 0 -806 l9 -88 71 -52 c176 -130 404 -273 612 -383 l125 -66 128
68 c165 87 293 165 472 285 222 150 207 131 219 276 14 156 14 570 0 726 -10
119 -11 123 -42 150 -44 38 -299 210 -424 285 -94 57 -344 192 -354 192 -2 0
-56 -28 -119 -61z m312 -592 l37 -16 -16 -41 c-12 -30 -20 -39 -32 -35 -48 19
-158 35 -200 29 -60 -9 -101 -49 -101 -98 0 -56 39 -90 155 -136 172 -69 210
-112 203 -225 -5 -75 -36 -123 -101 -157 -52 -27 -223 -36 -302 -16 l-50 13
-3 48 c-2 26 -1 47 1 47 3 0 24 -7 48 -16 63 -24 223 -25 265 -2 56 31 70 121
25 162 -10 9 -69 39 -131 66 -161 71 -200 113 -200 215 0 86 37 140 115 170
53 20 234 15 287 -8z"/>
<path d="M3524 2878 c4 -31 7 -174 7 -318 0 -144 -3 -287 -7 -318 l-7 -57 74
65 c122 107 309 295 309 310 0 15 -190 206 -309 310 l-74 65 7 -57z"/>
<path d="M1455 2802 c-133 -121 -235 -226 -235 -243 0 -22 336 -345 372 -358
7 -2 8 12 4 44 -10 61 -10 568 -1 629 4 25 3 46 -1 46 -5 0 -68 -53 -139 -118z"/>
<path d="M1786 1838 c26 -143 92 -403 123 -480 6 -16 17 -28 25 -28 21 0 322
105 396 138 l63 28 -144 80 c-119 67 -263 157 -441 277 l-28 19 6 -34z"/>
<path d="M3255 1814 c-116 -80 -273 -177 -409 -252 l-119 -66 64 -29 c91 -41
388 -140 402 -134 13 5 54 125 87 257 23 89 60 273 57 277 -1 1 -38 -23 -82
-53z"/>
<path d="M2490 1383 c-89 -40 -318 -129 -410 -157 -47 -15 -91 -29 -98 -31 -9
-3 1 -32 34 -97 131 -263 293 -430 459 -473 74 -19 96 -19 170 0 166 43 328
210 459 472 25 51 42 94 38 96 -4 3 -34 12 -67 22 -80 22 -306 107 -417 156
-49 21 -94 39 -101 38 -7 0 -37 -12 -67 -26z"/>
</g>
</svg>
